#N canvas 627 265 602 300 10;
#X obj 145 27 phasor~ 100;
#X obj 82 70 bp~ 100 50;
#X obj 84 103 env~ 1024;
#X obj 83 135 dbtorms;
#X floatatom 82 168 5 0 0 0 - - -;
#X obj 165 68 bp~ 200 50;
#X obj 175 100 env~ 1024;
#X obj 172 131 dbtorms;
#X floatatom 168 166 5 0 0 0 - - -;
#X obj 256 98 env~ 1024;
#X obj 253 129 dbtorms;
#X floatatom 249 164 5 0 0 0 - - -;
#X obj 345 98 env~ 1024;
#X obj 342 129 dbtorms;
#X floatatom 338 164 5 0 0 0 - - -;
#X obj 246 66 bp~ 300 50;
#X obj 335 66 bp~ 400 50;
#X obj 444 95 env~ 1024;
#X obj 441 126 dbtorms;
#X floatatom 437 161 5 0 0 0 - - -;
#X obj 434 63 bp~ 150 50;
#X connect 0 0 1 0;
#X connect 0 0 5 0;
#X connect 0 0 15 0;
#X connect 0 0 16 0;
#X connect 0 0 20 0;
#X connect 1 0 2 0;
#X connect 2 0 3 0;
#X connect 3 0 4 0;
#X connect 5 0 6 0;
#X connect 6 0 7 0;
#X connect 7 0 8 0;
#X connect 9 0 10 0;
#X connect 10 0 11 0;
#X connect 12 0 13 0;
#X connect 13 0 14 0;
#X connect 15 0 9 0;
#X connect 16 0 12 0;
#X connect 17 0 18 0;
#X connect 18 0 19 0;
#X connect 20 0 17 0;
