#N canvas 0 22 453 431 10;
#X floatatom 53 60 5 0 0 0 - - -;
#X obj 53 93 trigger f f;
#X obj 51 130 + 1;
#X floatatom 52 168 5 0 0 0 - - -;
#X obj 52 199 * 5;
#X floatatom 50 238 5 0 0 0 - - -;
#X obj 86 283 +;
#X obj 115 134 pow 2;
#X floatatom 116 170 5 0 0 0 - - -;
#X obj 115 200 / 4;
#X floatatom 114 240 5 0 0 0 - - -;
#X floatatom 88 323 5 0 0 0 - - -;
#X connect 0 0 1 0;
#X connect 1 0 2 0;
#X connect 1 1 7 0;
#X connect 2 0 3 0;
#X connect 3 0 4 0;
#X connect 4 0 5 0;
#X connect 5 0 6 0;
#X connect 6 0 11 0;
#X connect 7 0 8 0;
#X connect 8 0 9 0;
#X connect 9 0 10 0;
#X connect 10 0 6 1;
