#N canvas 282 362 450 300 10;
#X obj 86 113 + 1;
#X floatatom 66 47 5 0 0 0 - - -;
#X floatatom 69 184 5 0 0 0 - - -;
#X floatatom 144 57 5 0 0 0 - - -;
#X connect 0 0 2 0;
#X connect 1 0 0 0;
#X connect 3 0 0 1;
