#N canvas 122 476 450 300 10;
#X obj 28 70 vsl 15 128 0 127 0 0 empty empty empty 0 -9 0 10 -262144
-1 -1 0 1;
#X obj 69 101 nbx 5 14 -1e+37 1e+37 0 0 empty empty empty 0 -8 0 10
-262144 -1 -1 0 256;
#X floatatom 68 138 5 0 0 0 - - -;
#X obj 68 184 hsl 128 15 0 127 0 0 empty empty empty -2 -8 0 10 -262144
-1 -1 0 1;
#X obj 217 76 vradio 15 1 0 8 empty empty empty 0 -8 0 10 -262144 -1
-1 0;
#X obj 249 76 hradio 15 1 0 8 empty empty empty 0 -8 0 10 -262144 -1
-1 0;
#X obj 250 115 bng 15 250 50 0 empty empty empty 17 7 0 10 -262144
-1 -1;
#X obj 250 144 cnv 15 100 60 empty empty empty 20 12 0 14 -233017 -66577
0;
#X obj 310 111 tgl 15 0 empty empty empty 17 7 0 10 -262144 -1 -1 0
1;
#X obj 387 81 vu 15 120 empty empty -1 -8 0 10 -66577 -1 1 0;
#X text 28 46 VSlider;
#X text 69 82 Number_2;
#X text 66 119 Number;
#X text 64 166 HSlider;
#X text 196 54 VRadio;
#X text 245 54 HRadio;
#X text 248 95 Bang;
#X text 306 93 Toggle;
#X text 384 60 VU_Meter;
