#N canvas 650 39 766 718 10;
#X obj -469 -420 gemwin;
#X msg -488 -480 destroy;
#X obj -523 -144 t a b;
#N canvas 741 74 525 700 circle 0;
#X obj -868 -25 t a a;
#X obj -868 95 GEMglEnd;
#X obj -817 64 GEMglBegin;
#X obj -868 64 t a a a;
#X obj -849 153 t a b;
#X obj -822 176 f;
#X obj -791 176 + 1;
#X obj -760 18 loadbang;
#X obj -849 128 repeat 200;
#X obj -761 175 % 200;
#X obj -868 7 colorRGB 1 1 1;
#X obj -867 -54 inlet;
#X obj -527 139 inlet;
#X obj -851 496 GEMglVertex3f 0 0 0;
#X floatatom -563 212 5 0 0 0 - - -;
#X obj -722 370 expr cos($f1);
#X obj -786 367 t f f f;
#X obj -759 431 expr sin($f1)*sin($f2);
#X obj -786 400 expr sin($f1)*cos($f2);
#X obj -825 276 expr ($f1/200)*360;
#X obj -825 306 deg2rad;
#X obj -676 304 deg2rad;
#X obj -591 403 deg2rad;
#X obj -810 224 t f f f;
#X msg -760 41 2;
#X obj -524 167 * 360;
#X obj -722 460 * 1.9;
#X obj -761 454 * 1.9;
#X obj -814 459 * 1.9;
#X floatatom -493 409 5 0 0 0 - - -;
#X obj -474 311 inlet;
#X obj -487 383 + 1.2;
#X obj -868 32 GEMglLineWidth 2;
#X obj -486 355 randomF 2;
#X msg -526 435 \$1 500;
#X obj -529 460 line;
#X obj -676 278 expr ($f1/400)*$f2;
#X connect 0 0 10 0;
#X connect 3 0 1 0;
#X connect 3 1 8 0;
#X connect 3 2 2 0;
#X connect 4 0 13 0;
#X connect 4 1 5 0;
#X connect 5 0 6 0;
#X connect 5 0 23 0;
#X connect 6 0 9 0;
#X connect 7 0 24 0;
#X connect 8 0 4 0;
#X connect 9 0 5 1;
#X connect 10 0 32 0;
#X connect 11 0 0 0;
#X connect 12 0 25 0;
#X connect 14 0 36 1;
#X connect 15 0 26 0;
#X connect 16 0 18 0;
#X connect 16 1 17 0;
#X connect 16 2 15 0;
#X connect 17 0 27 0;
#X connect 18 0 28 0;
#X connect 19 0 20 0;
#X connect 20 0 16 0;
#X connect 21 0 18 1;
#X connect 22 0 17 1;
#X connect 23 0 19 0;
#X connect 23 1 36 0;
#X connect 24 0 2 1;
#X connect 25 0 14 0;
#X connect 26 0 13 2;
#X connect 27 0 13 3;
#X connect 28 0 13 1;
#X connect 29 0 34 0;
#X connect 30 0 33 0;
#X connect 31 0 29 0;
#X connect 32 0 3 0;
#X connect 33 0 31 0;
#X connect 34 0 35 0;
#X connect 35 0 26 1;
#X connect 35 0 27 1;
#X connect 35 0 28 1;
#X connect 36 0 21 0;
#X connect 36 0 22 0;
#X restore -551 34 pd circle;
#X floatatom -378 -224 5 0 0 0 - - -;
#X obj -378 -98 expr 2*abs($f1-0.5);
#X obj -378 -200 moses 1;
#X msg -340 -179 1;
#X floatatom -378 -156 5 0 0 0 - - -;
#X obj -378 -131 expr 1-$f1;
#X floatatom -378 -70 5 0 0 0 - - -;
#X obj -378 -47 expr 1-$f1;
#X floatatom -378 -23 5 0 0 0 - - -;
#N canvas 741 74 525 700 circle 0;
#X obj -868 -25 t a a;
#X obj -868 95 GEMglEnd;
#X obj -817 64 GEMglBegin;
#X obj -868 64 t a a a;
#X obj -849 153 t a b;
#X obj -822 176 f;
#X obj -791 176 + 1;
#X obj -760 18 loadbang;
#X obj -849 128 repeat 200;
#X obj -761 175 % 200;
#X obj -868 7 colorRGB 1 1 1;
#X obj -867 -54 inlet;
#X obj -564 162 inlet;
#X obj -851 496 GEMglVertex3f 0 0 0;
#X text -660 -21 ::Spherical coordinate::;
#X obj -657 6 expr $f1*cos($f2)*cos($f3);
#X obj -657 28 expr $f1*sin($f2);
#X obj -657 51 expr $f1*sin($f2)*cos($f3);
#X text -659 78 $f1=radius \, $f2=theta \, $f3=phi;
#X text -677 7 x=;
#X text -677 28 y=;
#X text -677 50 z=;
#X floatatom -563 212 5 0 0 0 - - -;
#X obj -722 370 expr cos($f1);
#X obj -786 367 t f f f;
#X obj -769 429 expr sin($f1)*sin($f2);
#X obj -786 400 expr sin($f1)*cos($f2);
#X obj -825 276 expr ($f1/200)*360;
#X obj -825 306 deg2rad;
#X obj -676 304 deg2rad;
#X obj -676 278 expr ($f1/200)*$f2;
#X floatatom -564 237 5 0 0 0 - - -;
#X obj -591 403 deg2rad;
#X obj -810 224 t f f f;
#X obj -564 188 * 360;
#X obj -814 459 * 1.8;
#X obj -769 452 * 1.8;
#X obj -722 460 * 1.8;
#X floatatom -483 419 5 0 0 0 - - -;
#X obj -464 321 inlet;
#X obj -476 393 + 1.2;
#X obj -868 32 GEMglLineWidth 4;
#X msg -760 41 0;
#X obj -476 365 randomF 2;
#X msg -485 450 \$1 500;
#X obj -488 475 line;
#X connect 0 0 10 0;
#X connect 3 0 1 0;
#X connect 3 1 8 0;
#X connect 3 2 2 0;
#X connect 4 0 13 0;
#X connect 4 1 5 0;
#X connect 5 0 6 0;
#X connect 5 0 33 0;
#X connect 6 0 9 0;
#X connect 7 0 42 0;
#X connect 8 0 4 0;
#X connect 9 0 5 1;
#X connect 10 0 41 0;
#X connect 11 0 0 0;
#X connect 12 0 34 0;
#X connect 22 0 31 0;
#X connect 23 0 37 0;
#X connect 24 0 26 0;
#X connect 24 1 25 0;
#X connect 24 2 23 0;
#X connect 25 0 36 0;
#X connect 26 0 35 0;
#X connect 27 0 28 0;
#X connect 28 0 24 0;
#X connect 29 0 26 1;
#X connect 30 0 29 0;
#X connect 30 0 32 0;
#X connect 31 0 30 1;
#X connect 32 0 25 1;
#X connect 33 0 27 0;
#X connect 33 1 30 0;
#X connect 34 0 22 0;
#X connect 35 0 13 1;
#X connect 36 0 13 3;
#X connect 37 0 13 2;
#X connect 38 0 44 0;
#X connect 39 0 43 0;
#X connect 40 0 38 0;
#X connect 41 0 3 0;
#X connect 42 0 2 1;
#X connect 43 0 40 0;
#X connect 44 0 45 0;
#X connect 45 0 37 1;
#X connect 45 0 36 1;
#X connect 45 0 35 1;
#X restore -470 156 pd circle;
#N canvas 741 74 525 700 circle 0;
#X obj -868 -25 t a a;
#X obj -868 95 GEMglEnd;
#X obj -817 64 GEMglBegin;
#X obj -868 64 t a a a;
#X obj -849 153 t a b;
#X obj -822 176 f;
#X obj -791 176 + 1;
#X obj -760 18 loadbang;
#X obj -849 128 repeat 200;
#X obj -761 175 % 200;
#X obj -868 7 colorRGB 1 1 1;
#X obj -867 -54 inlet;
#X obj -564 162 inlet;
#X obj -851 496 GEMglVertex3f 0 0 0;
#X text -660 -21 ::Spherical coordinate::;
#X obj -657 6 expr $f1*cos($f2)*cos($f3);
#X obj -657 28 expr $f1*sin($f2);
#X obj -657 51 expr $f1*sin($f2)*cos($f3);
#X text -659 78 $f1=radius \, $f2=theta \, $f3=phi;
#X text -677 7 x=;
#X text -677 28 y=;
#X text -677 50 z=;
#X floatatom -563 212 5 0 0 0 - - -;
#X obj -722 370 expr cos($f1);
#X obj -786 367 t f f f;
#X obj -769 429 expr sin($f1)*sin($f2);
#X obj -786 400 expr sin($f1)*cos($f2);
#X obj -825 276 expr ($f1/200)*360;
#X obj -825 306 deg2rad;
#X obj -676 304 deg2rad;
#X obj -591 403 deg2rad;
#X obj -810 224 t f f f;
#X obj -564 188 * 360;
#X obj -721 460 * 1.7;
#X obj -769 452 * 1.7;
#X obj -814 458 * 1.7;
#X floatatom -473 429 5 0 0 0 - - -;
#X obj -454 331 inlet;
#X obj -466 403 + 1.2;
#X obj -868 32 GEMglLineWidth 6;
#X msg -760 41 3;
#X obj -466 375 randomF 2;
#X msg -465 470 \$1 500;
#X obj -468 495 line;
#X obj -676 278 expr ($f1/100)*$f2;
#X connect 0 0 10 0;
#X connect 3 0 1 0;
#X connect 3 1 8 0;
#X connect 3 2 2 0;
#X connect 4 0 13 0;
#X connect 4 1 5 0;
#X connect 5 0 6 0;
#X connect 5 0 31 0;
#X connect 6 0 9 0;
#X connect 7 0 40 0;
#X connect 8 0 4 0;
#X connect 9 0 5 1;
#X connect 10 0 39 0;
#X connect 11 0 0 0;
#X connect 12 0 32 0;
#X connect 22 0 44 1;
#X connect 23 0 33 0;
#X connect 24 0 26 0;
#X connect 24 1 25 0;
#X connect 24 2 23 0;
#X connect 25 0 34 0;
#X connect 26 0 35 0;
#X connect 27 0 28 0;
#X connect 28 0 24 0;
#X connect 29 0 26 1;
#X connect 30 0 25 1;
#X connect 31 0 27 0;
#X connect 31 1 44 0;
#X connect 32 0 22 0;
#X connect 33 0 13 2;
#X connect 34 0 13 3;
#X connect 35 0 13 1;
#X connect 36 0 42 0;
#X connect 37 0 41 0;
#X connect 38 0 36 0;
#X connect 39 0 3 0;
#X connect 40 0 2 1;
#X connect 41 0 38 0;
#X connect 42 0 43 0;
#X connect 43 0 33 1;
#X connect 43 0 34 1;
#X connect 43 0 35 1;
#X connect 44 0 29 0;
#X connect 44 0 30 0;
#X restore -310 150 pd circle;
#X obj -290 8 pipe 0;
#X obj -378 33 pipe 400;
#X floatatom -201 56 5 0 0 0 - - -;
#X obj -309 109 rotateXYZ 180 0 0;
#X obj -470 129 rotateXYZ 0 180 90;
#X obj -190 -50 t f f f;
#X floatatom -464 -32 5 0 0 0 - - -;
#X obj -551 -4 rotateXYZ 0 0 180;
#X obj -154 -8 pipe 200;
#X obj -211 -14 pipe 600;
#X obj -154 17 * 720;
#X obj -296 -24 * 720;
#X obj -352 156 * 720;
#X obj -390 -402 tgl 15 0 empty empty empty 17 7 0 10 -262144 -1 -1
1 1;
#X obj -523 -176 gemframebuffer;
#X obj -558 -316 loadbang;
#X obj -524 -115 translateXYZ 0 0 -4;
#X obj -523 -221 gemhead -1;
#X obj -255 -198 pix_texture;
#X obj -524 -55 separator;
#X obj -470 95 separator;
#X obj -309 86 separator;
#X obj -255 -235 gemhead -1;
#X obj -390 -381 metro 30;
#X obj -255 -145 alpha 1;
#X obj -183 -143 tgl 15 0 empty empty empty 17 7 0 10 -262144 -1 -1
0 1;
#X obj -217 -363 change;
#X obj -219 -388 == 1;
#X obj -483 58 pipe 200;
#X obj -296 -47 pipe 600;
#X obj -366 86 bng 15 250 50 0 empty empty empty 17 7 0 10 -262144
-1 -1;
#X obj -390 -356 t b b;
#X obj -122 -104 random 4;
#X obj -121 -80 + 1;
#X obj -122 -128 t b b b;
#X obj -75 -77 random 4;
#X obj -74 -53 + 1;
#X obj -34 -54 random 4;
#X obj -33 -30 + 1;
#X obj -34 -4 * 180;
#X obj -75 -27 * 180;
#X obj -122 -54 * 180;
#X obj -255 -117 square 4;
#X msg -558 -295 dimen 1000 1000 \, color 0 0 0 0 \, format RGB32;
#X obj -390 -424 loadbang;
#N canvas 741 74 525 700 circle 0;
#X obj -868 -25 t a a;
#X obj -868 95 GEMglEnd;
#X obj -817 64 GEMglBegin;
#X obj -868 64 t a a a;
#X obj -849 153 t a b;
#X obj -822 176 f;
#X obj -791 176 + 1;
#X obj -760 18 loadbang;
#X obj -849 128 repeat 200;
#X obj -761 175 % 200;
#X obj -868 7 colorRGB 1 1 1;
#X obj -867 -54 inlet;
#X obj -527 139 inlet;
#X obj -851 496 GEMglVertex3f 0 0 0;
#X floatatom -563 212 5 0 0 0 - - -;
#X obj -722 370 expr cos($f1);
#X obj -786 367 t f f f;
#X obj -759 431 expr sin($f1)*sin($f2);
#X obj -786 400 expr sin($f1)*cos($f2);
#X obj -825 276 expr ($f1/200)*360;
#X obj -825 306 deg2rad;
#X obj -676 304 deg2rad;
#X obj -591 403 deg2rad;
#X obj -810 224 t f f f;
#X obj -524 167 * 360;
#X obj -722 460 * 1.9;
#X obj -761 454 * 1.9;
#X obj -814 459 * 1.9;
#X floatatom -493 409 5 0 0 0 - - -;
#X obj -486 331 inlet;
#X obj -486 355 randomF 2;
#X obj -868 32 GEMglLineWidth 4;
#X msg -760 41 3;
#X obj -487 383 + 0.5;
#X msg -495 440 \$1 500;
#X obj -498 465 line;
#X obj -676 278 expr ($f1/600)*$f2;
#X connect 0 0 10 0;
#X connect 3 0 1 0;
#X connect 3 1 8 0;
#X connect 3 2 2 0;
#X connect 4 0 13 0;
#X connect 4 1 5 0;
#X connect 5 0 6 0;
#X connect 5 0 23 0;
#X connect 6 0 9 0;
#X connect 7 0 32 0;
#X connect 8 0 4 0;
#X connect 9 0 5 1;
#X connect 10 0 31 0;
#X connect 11 0 0 0;
#X connect 12 0 24 0;
#X connect 14 0 36 1;
#X connect 15 0 25 0;
#X connect 16 0 18 0;
#X connect 16 1 17 0;
#X connect 16 2 15 0;
#X connect 17 0 26 0;
#X connect 18 0 27 0;
#X connect 19 0 20 0;
#X connect 20 0 16 0;
#X connect 21 0 18 1;
#X connect 22 0 17 1;
#X connect 23 0 19 0;
#X connect 23 1 36 0;
#X connect 24 0 14 0;
#X connect 25 0 13 2;
#X connect 26 0 13 3;
#X connect 27 0 13 1;
#X connect 28 0 34 0;
#X connect 29 0 30 0;
#X connect 30 0 33 0;
#X connect 31 0 3 0;
#X connect 32 0 2 1;
#X connect 33 0 28 0;
#X connect 34 0 35 0;
#X connect 35 0 25 1;
#X connect 35 0 26 1;
#X connect 35 0 27 1;
#X connect 36 0 21 0;
#X connect 36 0 22 0;
#X restore -640 150 pd circle;
#X obj -640 112 rotateXYZ 0 0 180;
#X obj -640 71 separator;
#X obj -524 -81 t a a a a;
#X obj -566 82 pipe 300;
#X obj -156 -258 randomF 1;
#X obj -98 -255 randomF 1;
#X obj -194 -299 randomF 1;
#X obj -95 -222 + 0;
#X obj -142 -223 + 0;
#X obj -183 -222 + 0;
#X obj -42 -204 t b;
#X obj -46 -175 randomF 0.3;
#X floatatom -46 -129 5 0 0 0 - - -;
#X obj -214 -335 t b b b b b b b;
#X obj -46 -153 + 0.05;
#X obj -378 -251 f;
#X obj -349 -252 + 0.01;
#X obj -301 -252 fmod 1.4;
#X msg -469 -459 reset \, color 0 0 0 \, dimen 600 600 \, FSAA 2 \,
border 0 \, buffer 1 \, create \, 1;
#X obj -255 -172 colorRGB 1 0.5 0 0.5;
#X msg -27 -101 \$1 500;
#X obj -88 -167 line;
#X connect 1 0 0 0;
#X connect 2 0 31 0;
#X connect 2 1 76 0;
#X connect 4 0 6 0;
#X connect 5 0 10 0;
#X connect 6 0 8 0;
#X connect 6 1 7 0;
#X connect 7 0 8 0;
#X connect 8 0 9 0;
#X connect 8 0 42 0;
#X connect 9 0 5 0;
#X connect 9 0 20 0;
#X connect 10 0 11 0;
#X connect 11 0 12 0;
#X connect 12 0 15 0;
#X connect 12 0 16 0;
#X connect 12 0 43 0;
#X connect 12 0 64 0;
#X connect 15 0 14 1;
#X connect 16 0 13 1;
#X connect 17 0 18 3;
#X connect 18 0 14 0;
#X connect 19 0 13 0;
#X connect 20 0 44 0;
#X connect 20 1 24 0;
#X connect 20 2 23 0;
#X connect 21 0 22 2;
#X connect 22 0 3 0;
#X connect 23 0 25 0;
#X connect 24 0 27 0;
#X connect 25 0 17 0;
#X connect 26 0 21 0;
#X connect 27 0 19 3;
#X connect 27 0 61 1;
#X connect 28 0 38 0;
#X connect 29 0 2 0;
#X connect 29 1 33 1;
#X connect 30 0 58 0;
#X connect 31 0 63 0;
#X connect 32 0 29 0;
#X connect 33 0 80 0;
#X connect 34 0 22 0;
#X connect 35 0 19 0;
#X connect 36 0 18 0;
#X connect 37 0 33 0;
#X connect 38 0 46 0;
#X connect 39 0 57 0;
#X connect 40 0 39 1;
#X connect 41 0 74 0;
#X connect 42 0 41 0;
#X connect 43 0 3 1;
#X connect 44 0 26 0;
#X connect 45 0 3 2;
#X connect 45 0 13 2;
#X connect 45 0 14 2;
#X connect 45 0 60 2;
#X connect 46 0 32 0;
#X connect 46 1 37 0;
#X connect 47 0 48 0;
#X connect 48 0 56 0;
#X connect 49 0 47 0;
#X connect 49 1 50 0;
#X connect 49 2 52 0;
#X connect 50 0 51 0;
#X connect 51 0 55 0;
#X connect 52 0 53 0;
#X connect 53 0 54 0;
#X connect 54 0 27 1;
#X connect 55 0 25 1;
#X connect 56 0 26 1;
#X connect 58 0 29 0;
#X connect 59 0 28 0;
#X connect 59 0 79 0;
#X connect 61 0 60 0;
#X connect 62 0 61 0;
#X connect 63 0 34 0;
#X connect 63 1 35 0;
#X connect 63 2 36 0;
#X connect 63 3 62 0;
#X connect 64 0 60 1;
#X connect 65 0 69 0;
#X connect 66 0 68 0;
#X connect 67 0 70 0;
#X connect 68 0 80 3;
#X connect 69 0 80 2;
#X connect 70 0 80 1;
#X connect 71 0 72 0;
#X connect 72 0 75 0;
#X connect 73 0 81 0;
#X connect 74 0 67 0;
#X connect 74 1 65 0;
#X connect 74 2 66 0;
#X connect 74 3 40 0;
#X connect 74 4 45 0;
#X connect 74 5 49 0;
#X connect 74 6 71 0;
#X connect 75 0 73 0;
#X connect 76 0 4 0;
#X connect 76 0 77 0;
#X connect 77 0 78 0;
#X connect 78 0 76 1;
#X connect 79 0 0 0;
#X connect 80 0 39 0;
#X connect 81 0 82 0;
#X connect 82 0 80 4;
