#N canvas 0 22 497 307 10;
#X msg 35 39 5;
#X msg 90 38 float 7;
#X obj 35 85 float;
#X floatatom 35 128 5 0 0 0 - - -;
#X text 52 11 numbers;
#X msg 190 37 symbol hello;
#X msg 231 78 symbol bye33;
#X obj 190 110 symbol;
#X symbolatom 191 155 10 0 0 0 - - -;
#X text 204 12 symbols;
#X msg 348 41 1 2 3;
#X msg 383 75 list 4.1 5.2 6.3;
#X floatatom 346 159 5 0 0 0 - - -;
#X obj 342 116 unpack f f f;
#X floatatom 388 160 5 0 0 0 - - -;
#X floatatom 436 161 5 0 0 0 - - -;
#X text 350 17 lists;
#X connect 0 0 2 0;
#X connect 1 0 2 1;
#X connect 2 0 3 0;
#X connect 5 0 7 0;
#X connect 6 0 7 1;
#X connect 7 0 8 0;
#X connect 10 0 13 0;
#X connect 11 0 13 0;
#X connect 13 0 12 0;
#X connect 13 1 14 0;
#X connect 13 2 15 0;
