#N canvas 393 278 656 369 10;
#X obj 147 35 r metroTime;
#X obj 129 91 metro 1000;
#X obj 64 35 loadbang;
#X obj 129 167 % 2;
#X obj 129 116 f;
#X obj 159 120 + 1;
#X floatatom 129 141 5 0 0 0 - - -;
#X floatatom 129 196 5 0 0 0 - - -;
#X connect 0 0 1 1;
#X connect 1 0 4 0;
#X connect 2 0 1 0;
#X connect 3 0 7 0;
#X connect 4 0 5 0;
#X connect 4 0 6 0;
#X connect 5 0 4 1;
#X connect 6 0 3 0;
